# xmcd
#
# Track frame offsets:
#	150
#	13096
#	29834
#	50414
#	65305
#	79074
#	100274
#	107338
#	124424
#	134264
#	147881
#	165723
#	178738
#	193339
#	208128
#	222626
#	240849
#	256310
#
# Disc length: 3477 seconds
#
# Revision: 0
# Processed by: cddbd v1.5.2PL0 Copyright (c) Steve Scherf et al.
# Submitted via: dBpowerAMP V4.0
#
DISCID=0d0d9312
DTITLE=ERIC BIBB - Booker's guitar
DYEAR=1900
DGENRE=
TTITLE0=Booker's guitar
TTITLE1=With my maker I am one
TTITLE2=Flood water
TTITLE3=Walkin' blues again
TTITLE4=Sunrise blues
TTITLE5=Wayfaring stranger
TTITLE6=Train for Aberdeen
TTITLE7=New home
TTITLE8=Nobody's fault but mine
TTITLE9=One soul to save
TTITLE10=Rocking chair
TTITLE11=Turning pages
TTITLE12=A good woman
TTITLE13=Tell Riley
TTITLE14=A-Z blues
TTITLE15=Everyday's been sunday
TTITLE16=River of song
TTITLE17=Dreaming in Mandika
EXTD=ERIC BIBB  Booker's guitar\n
EXTT0=
EXTT1=
EXTT2=
EXTT3=
EXTT4=
EXTT5=
EXTT6=
EXTT7=
EXTT8=
EXTT9=
EXTT10=
EXTT11=
EXTT12=
EXTT13=
EXTT14=
EXTT15=
EXTT16=
EXTT17=
PLAYORDER=
